<svg id="Capa_1" enable-background="new 0 0 512 512" height="512" viewBox="0 0 512 512" width="512" xmlns="http://www.w3.org/2000/svg"><g><g id="XMLID_6_"><g id="XMLID_2153_"><path id="XMLID_2237_" d="m188.927 256c0 36.984 30.089 67.073 67.073 67.073s67.073-30.089 67.073-67.073-30.089-67.073-67.073-67.073-67.073 30.089-67.073 67.073zm114.146 0c0 25.956-21.117 47.073-47.073 47.073s-47.073-21.117-47.073-47.073 21.117-47.073 47.073-47.073 47.073 21.117 47.073 47.073z"/><path id="XMLID_2240_" d="m480 224.127c-14.153 0-26.182 9.239-30.391 22h-57.969c-2.166-30.041-14.128-57.41-32.706-78.917l62.114-62.114c8.322 5.62 18.344 8.904 29.12 8.904 28.765 0 52.167-23.402 52.167-52.167s-23.402-52.167-52.167-52.167c-28.766.001-52.168 23.402-52.168 52.167 0 10.775 3.285 20.798 8.904 29.12l-62.114 62.114c-23.842-20.595-54.886-33.067-88.79-33.067s-64.948 12.472-88.791 33.067l-88.294-88.295c3.964-6.466 6.253-14.064 6.253-22.188 0-23.481-19.103-42.584-42.584-42.584s-42.584 19.103-42.584 42.584 19.103 42.584 42.584 42.584c8.124 0 15.722-2.289 22.188-6.253l88.295 88.295c-20.595 23.842-33.067 54.886-33.067 88.79 0 33.95 12.505 65.033 33.149 88.888l-54.447 54.447c-10.254-7.435-22.846-11.835-36.452-11.835-34.325 0-62.25 27.925-62.25 62.25s27.925 62.25 62.25 62.25 62.25-27.925 62.25-62.25c0-13.514-4.342-26.026-11.686-36.242l54.493-54.493c21.493 18.53 48.824 30.461 78.82 32.624v39.262c-17.882 4.48-31.167 20.681-31.167 39.933 0 22.699 18.467 41.167 41.167 41.167s41.167-18.467 41.167-41.167c0-19.251-13.285-35.453-31.167-39.933v-39.277c15.997-1.167 31.467-5.104 46.111-11.763 5.028-2.286 7.25-8.215 4.964-13.242-2.286-5.028-8.217-7.249-13.242-4.964-15.096 6.865-31.232 10.345-47.96 10.345-63.962 0-116-52.038-116-116s52.038-116 116-116 116 52.038 116 116c0 16.729-3.481 32.866-10.346 47.962-2.286 5.027-.064 10.956 4.963 13.243 5.025 2.286 10.957.064 13.243-4.963 6.66-14.644 10.597-30.116 11.764-46.115h57.985c4.21 12.761 16.238 22 30.391 22 17.645 0 32-14.355 32-32s-14.355-32-32-32zm-417.75 267.873c-23.297 0-42.25-18.953-42.25-42.25s18.953-42.25 42.25-42.25 42.25 18.953 42.25 42.25-18.953 42.25-42.25 42.25zm215.043-21.167c0 11.671-9.495 21.167-21.167 21.167s-21.167-9.495-21.167-21.167 9.495-21.167 21.167-21.167 21.167 9.496 21.167 21.167zm-257.293-428.249c0-12.453 10.131-22.584 22.584-22.584s22.584 10.131 22.584 22.584-10.131 22.584-22.584 22.584-22.584-10.131-22.584-22.584zm430.167-12.917c17.737 0 32.167 14.43 32.167 32.167s-14.431 32.166-32.167 32.166-32.167-14.43-32.167-32.167 14.43-32.166 32.167-32.166zm29.833 238.46c-6.617 0-12-5.383-12-12s5.383-12 12-12 12 5.383 12 12-5.383 12-12 12z"/><path id="XMLID_2245_" d="m345 335c-2.63 0-5.21 1.07-7.07 2.93s-2.93 4.44-2.93 7.07 1.07 5.21 2.93 7.07 4.43 2.93 7.07 2.93c2.63 0 5.21-1.07 7.07-2.93s2.93-4.44 2.93-7.07-1.07-5.21-2.93-7.07-4.44-2.93-7.07-2.93z"/></g></g></g></svg>